<svg aria-hidden="true" style="width:0;height:0;position:absolute;overflow:hidden" xmlns="http://www.w3.org/2000/svg"><defs><symbol id="icon-dot" viewBox="0 0 34 32"><path d="M17.231 32c8.837 0 16-7.163 16-16s-7.163-16-16-16-16 7.163-16 16 7.163 16 16 16z"/></symbol><symbol id="icon-current" viewBox="0 0 71 32"><path d="M54.154 0H17.231c-8.837 0-16 7.163-16 16s7.163 16 16 16h36.923c8.837 0 16-7.163 16-16s-7.163-16-16-16z"/></symbol></defs></svg><svg aria-hidden="true" style="width:0;height:0;position:absolute;overflow:hidden" xmlns="http://www.w3.org/2000/svg"><defs><symbol id="icon-slider" viewBox="0 0 583 32"><path fill="#fd9222" style="fill:var(--color1,#fd9222)" d="M54.154 0H17.231c-8.837 0-16 7.163-16 16s7.163 16 16 16h36.923c8.837 0 16-7.163 16-16s-7.163-16-16-16z"/><path fill="#111" style="fill:var(--color2,#111)" opacity=".1" d="M118.154 32c8.837 0 16-7.163 16-16s-7.163-16-16-16-16 7.163-16 16 7.163 16 16 16zM182.154 32c8.837 0 16-7.163 16-16s-7.163-16-16-16-16 7.163-16 16 7.163 16 16 16zM246.154 32c8.837 0 16-7.163 16-16s-7.163-16-16-16-16 7.163-16 16 7.163 16 16 16zM310.154 32c8.837 0 16-7.163 16-16s-7.163-16-16-16-16 7.163-16 16 7.163 16 16 16zM374.154 32c8.837 0 16-7.163 16-16s-7.163-16-16-16-16 7.163-16 16 7.163 16 16 16zM438.154 32c8.837 0 16-7.163 16-16s-7.163-16-16-16-16 7.163-16 16 7.163 16 16 16zM502.154 32c8.837 0 16-7.163 16-16s-7.163-16-16-16-16 7.163-16 16 7.163 16 16 16zM566.154 32c8.837 0 16-7.163 16-16s-7.163-16-16-16-16 7.163-16 16 7.163 16 16 16z"/></symbol></defs></svg>